<svg id="Layer_1" data-name="Layer 1" xmlns="http://www.w3.org/2000/svg" xmlns:xlink="http://www.w3.org/1999/xlink" viewBox="0 0 751.79 766.28"><defs><style>.cls-1{fill:url(#linear-gradient);}.cls-2{fill:#fff;stroke:#fff;stroke-miterlimit:10;}.cls-3{fill:url(#linear-gradient-2);}.cls-4{fill:url(#linear-gradient-3);}</style><linearGradient id="linear-gradient" x1="670.52" y1="605.88" x2="79.48" y2="144.12" gradientUnits="userSpaceOnUse"><stop offset="0.42" stop-color="#9256a2"/><stop offset="0.75" stop-color="#6f4c9e"/></linearGradient><linearGradient id="linear-gradient-2" x1="591.68" y1="375" x2="156.32" y2="375" gradientUnits="userSpaceOnUse"><stop offset="0.1" stop-color="#ed7468"/><stop offset="0.51" stop-color="#f3a183"/><stop offset="0.7" stop-color="#ec6e66"/><stop offset="0.84" stop-color="#ed7368"/></linearGradient><linearGradient id="linear-gradient-3" x1="449" y1="287.02" x2="299" y2="287.02" gradientUnits="userSpaceOnUse"><stop offset="0.1" stop-color="#56ab46"/><stop offset="0.31" stop-color="#88c259"/><stop offset="0.46" stop-color="#abd267"/><stop offset="0.81" stop-color="#56ab46"/></linearGradient></defs><circle class="cls-1" cx="375" cy="375" r="375"/><circle class="cls-2" cx="374" cy="375" r="325"/><rect class="cls-2" x="668.91" y="244.66" width="86.17" height="49.4" transform="translate(111.48 -281.33) rotate(22)"/><rect class="cls-2" x="203.26" y="655.71" width="109.15" height="60.89" transform="translate(773.16 174.96) rotate(70)"/><rect class="cls-2" x="125.81" y="674.95" width="90.77" height="43.66"/><rect class="cls-2" x="702.62" y="215.43" width="90.77" height="43.66" transform="translate(405.19 927.51) rotate(-85)"/><rect class="cls-2" x="528.37" y="212.55" width="86.17" height="49.4" transform="translate(89.22 -231.02) rotate(22)"/><rect class="cls-2" x="142.67" y="722.12" width="90.77" height="43.66"/><ellipse class="cls-3" cx="374" cy="375" rx="217.68" ry="172.44"/><ellipse class="cls-2" cx="375" cy="269.73" rx="199.34" ry="150"/><rect class="cls-2" x="364.8" y="380.83" width="18.39" height="166.61"/><rect class="cls-2" x="122.57" y="260.69" width="95.36" height="253.7"/><rect class="cls-2" x="531.35" y="291.61" width="95.36" height="240.29"/><ellipse class="cls-4" cx="374" cy="287.02" rx="75" ry="100.08"/><rect class="cls-2" x="596.18" y="241.76" width="155.11" height="410.17"/><rect class="cls-2" x="212.31" y="605.38" width="458.43" height="144.62"/></svg>